<?xml version="1.0" encoding="UTF-8"?>
<svg id="Layer_1" data-name="Layer 1" xmlns="http://www.w3.org/2000/svg" width="20.27in" height="20.275in" viewBox="0 0 1459.4407 1459.7973">
  <defs>
    <style>
      .cls-1 {
        fill: none;
        stroke: #231f20;
        stroke-miterlimit: 10;
      }

      .cls-2 {
        opacity: .45;
      }

      .cls-3 {
        opacity: .28;
      }
    </style>
  </defs>
  <path class="cls-3" d="M242.9474,365.3158h-13.5851c-7.8304-2.4757-16.5678-6.2673-19.4963-14.3642l-2.369-6.5498c-3.8736-10.7099-4.8688-15.8361-3.2355-28.7673.7896-6.252,2.968-12.0012,4.2696-18.1162l3.7071-17.417c1.4804-6.9554-.9416-10.8294-2.6493-18.4477-1.121-5.0009-4.2204-13.4458-10.5721-13.4342l-34.9577.0638c-10.0796.0184-19.6648.6918-29.6881.3012-2.5975-.1012-5.4299-1.7071-7.8505-1.5958-3.6932.1699-11.6887,1.5076-13.4506-2.5566-.4029-.9293-.0094-2.829.5824-3.7179l5.8828-8.8364c7.2756-10.9285,14.3421-26.5185,6.1548-39.081-6.8506,2.3898-13.7118,3.21-20.8888,3.9068l-11.7751,1.1433c-11.8431,2.9792-5.0019,12.2535-14.0776,17.4574-2.4371,1.3974-6.1257,1.0891-8.0885-.8521l-1.3838-3.3958v-4.7062c4.17-23.2638,13.7341-17.8705,30.0277-26.8929,8.3033-4.5978,9.6942-12.805,8.1281-21.7605-2.0485-11.714-2.2173-23.2012-.4718-34.9591.5122-3.4502-.2076-6.7275-2.4139-9.2344l-5.5898-6.3512c-3.4202-3.8861-4.1506-8.9371-3.2228-13.8749,1.1124-5.9201,6.3332-3.6826,11.0498-6.1978,4.3679-2.3293,8.5058-3.9695,13.5211-4.1458l1.8365-6.0462c.2876-.9468,2.7825-1.4172,3.6274-1.1265.75.258,1.8872,1.2588,2.2308,2.0562l2.5562,5.9322,6.1723-5.0099c2.1445-1.7406,5.2191-3.0344,7.9247-2.1586,2.5855,1.8005,1.9012,12.2401,1.7013,15.3589l-1.4008,21.8541.0527,11.4421c.016,3.4862,2.2971,5.436,5.1905,6.5422,5.2404,2.0035,10.1732,4.2117,15.2319,6.6369,21.2364,10.1813,40.6587,24.2222,48.5856,47.4035,6.6656,19.4929,2.1005,34.7661,5.7193,40.8721,8.0457,13.5755,13.9,23.6711,13.6303,40.3198l-.2983,18.4125c-.0564,3.4816-2.943,20.3931-3.8897,24.0445-1.0832,4.1779-1.512,8.0833-1.9824,12.3672-.3806,3.4663-2.3362,6.1258-.4292,11.7116,2.3162,6.7844,4.8673,11.0776,12.4709,12.4334,15.709,2.8011,26.3148-7.8984,30.5123-4.2336,3.3957,2.9648-.5464,8.4184-3.3056,11.285-5.9101,6.1401-14.2652,10.1965-22.4736,11.6734-.4016.0722-1.2334.5546-1.22.6115ZM145.6272,232.7567c3.0529-3.1457,6.2347-4.3323,10.8411-5.028l-3.3975-7.2129c-2.1702-4.6073-1.771-8.9962-.0062-13.6767-.6576-2.9355-2.8514-6.1024-5.8152-7.5704l-1.9196,8.8559c-1.7546,8.0951-5.4594,15.2936-9.1058,22.6978-.2084.4231-.4994,1.5813-.1354,1.7185.2729.1029,1.1561.3438,1.4951.3386l8.0434-.1229Z"/>
  <g class="cls-2">
    <path d="M555.9868,109.0312v8.9403c-4.0675,15.5465-13.7947,24.8261-25.0734,35.8252-2.021,1.9709-3.6125,4.298-5.0095,6.7322,3.1076,8.9409,4.5222,8.0997,6.2561,18.1288.3173,1.8354.5867,3.6739.7029,5.558l.3261,5.2894c.3555,5.7659.4304,11.5753-.0359,17.3096-.4809,5.9139-3.2132,17.7437.1422,20.5153l3.5021,2.8928c5.5011,4.544,12.1089,11.0699,8.7368,18.8305-4.1432,9.5353-10.6364,15.2637-12.1651,22.5799-.2224,1.0641-.5369,3.7702-1.9949,3.7957l-14.8314.2587c-7.9829.1393-15.6375.0052-23.6405-.4145-2.1777-.1142-4.3907-1.2107-5.9652-2.5336,3.7379-7.5606,13.9915-7.4915,23.2955-12.8665,2.9305-1.693,7.0947-10.0428,3.611-11.878-9.7094-5.1149-15.1497-1.7879-30.0142-9.9173-7.1979-3.9365-7.4728,4.4686-16.1327,5.2808-4.6358.4347-8.9793.4627-13.7253.5706-.8774.0199-2.3881.4387-2.7226,1.0885-.2867.5569-.4056,1.9923-.5305,2.7861l-3.791,24.1054c-.1663,1.0573-1.311,3.1725-2.3354,3.5724l-35.1835.1639c-3.5839.0167-5.3647-3.549-5.912-7.0391-10.181,6.1091-16.8861,11.6583-19.3376,23.6527.7436,1.0734,1.8491,2.414,2.7487,3.179,6.1193,5.2042,9.4362,12.2069,9.2051,20.3016l-.1986,6.955c-.0341,1.1923-1.0612,3.1743-2.3145,3.7097l-28.4043,12.1331c-2.1996.9396-5.3544,1.8245-7.0973.0454-.7642-.7801-1.6255-1.6486-2.4467-2.3836-4.7453,1.8378-9.5335,3.7432-12.7704,7.7175-1.2285,1.5084-1.9185,3.7323-3.1069,5.4302-.979,1.3988-4.8349,1.612-5.7885.2423-.7027-4.1924-.4907-8.5781.1307-12.8346,3.4187-23.4186-5.9262-26.5008.2984-46.5651l4.331-13.9604c1.5468-4.986,4.8128-8.7169,9.5082-10.9825-.0912-10.4167,2.1549-19.7414,6.1024-29.2165,12.3443-29.6302,34.9982-57.274,65.5462-69.1359,20.1431-7.8216,48.6762-10.9064,70.3101-12.6002,2.7357-.2142,5.457.1657,8.0257-.663,1.7451-.563,2.6908-3.0291,3.6523-4.5505,7.837-12.3994,19.4001-17.9642,25.6066-30.6291.6962-1.4207,1.4801-3.943.5487-5.1738-8.2145-10.854-30.6624,13.4181-41.9447,9.5415-.0611-4.9904,2.6079-8.8398,6.0855-11.9385l12.4946-11.1333c2.9866-2.6612,6.265-5.1199,9.7341-6.9819,5.9867-3.2132,17.096-2.841,23.2847-.1237,5.0592,2.2214,9.4511,5.2868,13.7757,8.8694,2.3139,1.9169,3.2284,4.9714,4.5111,7.5203ZM422.2253,262.1696c2.1013-1.4899,2.2755-4.3826,1.1525-6.2937-6.006,2.123-11.4835,5.3077-15.5272,9.5885,5.37.3172,10.2917-.3999,14.3747-3.2947Z"/>
  </g>
  <path d="M778.7151,238.5657c-6.6153-11.3079-1.6436-18.7187-14.3031-18.9994-7.2244-.1602-13.6858,1.3-20.6513,2.9736-2.0358.4891-4.6404,2.4701-5.4393,4.6069-8.0611,21.5609-5.231,30.7495-10.1815,48.0637l-2.943,10.293c-2.513,8.789-4.7361,17.388-8.1212,25.8036-1.6398,4.0767-4.1965,7.8055-8.204,9.6564-3.5428,1.6362-17.9293,1.8459-22.402-.8344-1.5441.405-4.1187,1.7531-5.6211,1.8099-4.6404.1754-9.3179.5203-13.6941-.3362-4.305-.8425-5.9432-7.5957-3.946-10.8069,1.576-2.5339,4.7799-3.2353,7.5042-3.2787,7.413-.1179,8.3843-8.2116,10.4523-14.2097l7.1335-20.6904c5.245-15.2127-.5575-26.2324-6.814-39.8242-3.6078-7.8376-1.477-12.8188-4.2327-19.9559-5.2389,4.9853-11.0538,4.6854-16.981,2.698-7.8147-2.6203-4.0631-5.9188-7.0852-12.7298-2.0622-4.6477-7.6016-7.4995-7.1743-14.8736l.7666-13.229c-4.777-4.3443-8.8067-8.1958-12.8448-13.5705,4.6584-2.8498,15.7796.6219,16.659-1.1578,1.4454-2.9251-2.8883-6.912-2.6112-11.8137,6.8101-4.2497,9.6794,4.6419,18.5005,2.5097,11.3452-2.7423,22.8081-.3653,32.8509,6.6245,8.0959-14.4544,23.0459-29.1506,38.2074-34.9402,5.8616-2.9325,12.0899-3.4312,18.5776-3.5256,17.6065-.2563,35.2194,3.7511,50.1179,13.1791,11.0321-3.4295,13.2977-4.5455,25.1219-2.4851,14.3503,2.5006,25.7307,11.2385,31.8545,24.2126,10.542,22.3345,5.77,51.9693,1.3209,74.8031l-3.0849,15.8322c-1.1295,5.7965-5.5719,26.4378-14.8946,20.6407-1.8778-8.2265,1.5913-26.4737,2.9681-36.0674.7571-5.2759,1.1536-10.442,1.6452-15.7827,1.336-14.5121-.6889-29.6821-8.8146-41.9856-3.3595-5.0867-7.8382-9.8103-13.4831-12.1091-.4984-.203-2.2424-.1804-2.2894.3228-.0468.5006-.0019,1.5295.1053,2.2719l5.3351,36.9517c1.7431,12.0729-7.8778,5.122,4.2779,45.8173,3.6224,12.1271-.6363,16.0784.5672,28.8207l1.6574,17.549.645,9.0807c.3562,5.0147,1.0182,9.6976-.8604,14.5534-1.1504,2.9735-3.7242,7.573-7.406,7.5644l-17.8016-.042c-6.5537-.0155-12.8194.1658-19.3158-.1362-2.5624-1.4393-3.4759-5.2322-3.8801-7.7931-1.3838-8.7673,8.5906-2.6707,11.6353-13.6245,2.5034-9.0064,1.375-18.4197-2.3824-27.1099-3.3633-7.7788-8.4506-14.2308-12.7197-21.5283l-7.7216-13.199ZM819.7789,304.6984c1.9877-5.0059.6347-9.3904-.1841-13.7371-.2823,4.7727-.3505,9.061.1841,13.7371ZM702.7836,291.7521l-3.6272,7.8913c-1.6556,3.602,4.0025,1.9062,3.6272-7.8913Z"/>
  <line class="cls-1" x1="0" y1="701.8108" x2="1459.4407" y2="701.8108"/>
  <line class="cls-1" y1="434.2966" x2="1459.4407" y2="434.2966"/>
  <line class="cls-1" y1="969.3249" x2="1459.4407" y2="969.3249"/>
  <line class="cls-1" y1="1236.839" x2="1459.4407" y2="1236.839"/>
  <line class="cls-1" x1="918.7525" y1="0" x2="918.698" y2="1459.4407"/>
  <line class="cls-1" x1="1195.021" y1=".3566" x2="1194.9665" y2="1459.7972"/>
  <line class="cls-1" x1="605.186" y1="424.1271" x2="605.1254" y2="1459.7797"/>
  <line class="cls-1" x1="296.7118" y1="414.0678" x2="296.6512" y2="1449.7204"/>
</svg>